Coordinates
version=1
nRows=60
nColumns=12
inDegrees=yes

Units are S.I. units (second, meters, Newtons, ...)
Angles are in degrees

endheader
time	SC_y	SC_z	SC_x	AC_y	AC_z	AC_x	GH_y	GH_z	GH_yy	EL_x	PS_y
       0.0              -28.44          19.23          5.567          54.58         0.9255          12.76          179.5          -18.0          173.8           21.3           90.0
   0.04345              -28.44          19.24          5.575          54.58         0.9246          12.75          179.5         -17.99          173.8          21.31          90.01
   0.08691              -28.44          19.24          5.583          54.57         0.9236          12.75          179.5         -17.98          173.8          21.31          90.02
    0.1304              -28.44          19.24          5.592          54.57         0.9226          12.74          179.5         -17.96          173.8          21.32          90.02
    0.1738              -28.45          19.24          5.601          54.57         0.9215          12.74          179.4         -17.95          173.8          21.33          90.03
    0.2173              -28.45          19.24           5.61          54.57         0.9203          12.74          179.4         -17.94          173.8          21.34          90.04
    0.2607              -28.45          19.24          5.621          54.57          0.919          12.73          179.4         -17.92          173.8          21.35          90.04
    0.3042              -28.45          19.24          5.632          54.56         0.9177          12.73          179.4          -17.9          173.8          21.36          90.05
    0.3476              -28.46          19.24          5.644          54.56         0.9162          12.72          179.4         -17.89          173.8          21.37          90.06
    0.3911              -28.46          19.25          5.656          54.56         0.9147          12.71          179.3         -17.87          173.8          21.38          90.07
    0.4345              -28.47          19.25           5.67          54.55          0.913          12.71          179.3         -17.85          173.8          21.39          90.08
     0.478              -28.47          19.25          5.685          54.55         0.9112           12.7          179.3         -17.83          173.8          21.41           90.1
    0.5214              -28.47          19.25          5.701          54.55         0.9093          12.69          179.3          -17.8          173.8          21.42          90.11
    0.5649              -28.48          19.25          5.718          54.54         0.9072          12.69          179.2         -17.78          173.8          21.44          90.12
    0.6083              -28.48          19.26          5.736          54.54          0.905          12.68          179.2         -17.75          173.8          21.45          90.14
    0.6518              -28.49          19.26          5.756          54.53         0.9025          12.67          179.2         -17.72          173.8          21.47          90.15
    0.6953              -28.49          19.26          5.778          54.53         0.8999          12.66          179.1         -17.69          173.8          21.49          90.17
    0.7387               -28.5          19.26          5.802          54.52          0.897          12.65          179.1         -17.65          173.8          21.51          90.19
    0.7822              -28.51          19.27          5.828          54.52         0.8938          12.64          179.1         -17.61          173.8          21.54          90.21
    0.8256              -28.52          19.27          5.856          54.51         0.8904          12.62          179.0         -17.57          173.8          21.56          90.23
    0.8691              -28.52          19.27          5.888           54.5         0.8866          12.61          178.9         -17.53          173.8          21.59          90.25
    0.9125              -28.53          19.28          5.922           54.5         0.8824          12.59          178.9         -17.47          173.8          21.62          90.28
     0.956              -28.54          19.28           5.96          54.49         0.8778          12.58          178.8         -17.42          173.8          21.66          90.31
    0.9994              -28.55          19.29          6.002          54.48         0.8726          12.56          178.7         -17.36          173.8           21.7          90.34
     1.043              -28.57           19.3          6.049          54.47          0.867          12.53          178.7         -17.29          173.8          21.74          90.38
     1.086              -28.58           19.3          6.101          54.45         0.8606          12.51          178.6         -17.21          173.8          21.79          90.42
      1.13               -28.6          19.31          6.159          54.44         0.8535          12.48          178.5         -17.12          173.8          21.84          90.47
     1.173              -28.61          19.32          6.225          54.42         0.8455          12.45          178.4         -17.03          173.8           21.9          90.52
     1.217              -28.63          19.33          6.299          54.41         0.8365          12.42          178.2         -16.92          173.8          21.97          90.58
      1.26              -28.66          19.34          6.384          54.39         0.8262          12.38          178.1         -16.79          173.8          22.05          90.64
     1.304              -28.68          19.35           6.48          54.36         0.8145          12.34          177.9         -16.65          173.8          22.14          90.72
     1.347              -28.71          19.36           6.59          54.34         0.8011          12.29          177.7         -16.49          173.8          22.24          90.81
     1.391              -28.75          19.38          6.718          54.31         0.7855          12.23          177.5          -16.3          173.8          22.36          90.91
     1.434              -28.79           19.4          6.866          54.27         0.7675          12.16          177.3         -16.08          173.8          22.49          91.02
     1.477              -28.83          19.42          7.039          54.23         0.7464          12.08          177.0         -15.82          173.8          22.65          91.16
     1.521              -28.89          19.45          7.244          54.18         0.7216          11.99          176.6         -15.52          173.9          22.84          91.32
     1.564              -28.96          19.48          7.487          54.13          0.692          11.87          176.2         -15.16          173.9          23.06          91.51
     1.608              -29.03          19.51          7.778          54.06         0.6566          11.74          175.7         -14.73          173.9          23.33          91.74
     1.651              -29.13          19.56           8.13          53.98         0.6137          11.58          175.1         -14.21          173.9          23.65          92.02
     1.695              -29.25          19.61          8.561          53.88         0.5614          11.38          174.3         -13.57          173.9          24.05          92.35
     1.738              -29.39          19.68          9.092          53.75         0.4968          11.14          173.4         -12.79          174.0          24.54          92.77
     1.782              -29.57          19.77          9.754          53.59         0.4162          10.83          172.2         -11.81          174.0          25.15          93.29
     1.825              -29.79          19.87          10.59           53.4         0.3147          10.45          170.8         -10.57          174.0          25.91          93.95
     1.868              -30.08          20.01          11.65          53.15         0.1857          9.961          169.0         -9.004          174.1          26.89          94.78
     1.912              -30.44          20.18          13.01          52.83        0.02052          9.337          166.6         -6.996          174.2          28.14          95.85
     1.955              -30.91           20.4          14.75          52.42        -0.1914          8.537          163.6         -4.419          174.3          29.74          97.21
     1.999              -31.52          20.68          16.97           51.9        -0.4621          7.514          159.7         -1.128          174.4          31.78          98.96
     2.042              -32.27          21.04          19.77          51.24        -0.8025          6.228          154.9          3.011          174.6          34.35          101.2
     2.086              -33.19          21.47          23.18          50.44         -1.217          4.661          149.0          8.054          174.8          37.49          103.8
     2.129              -34.26          21.97          27.13          49.51         -1.698          2.845          142.1           13.9          175.0          41.12          106.9
     2.173              -35.41          22.52          31.41          48.51         -2.219         0.8784          134.7          20.23          175.2          45.05          110.3
     2.216              -36.57          23.06          35.69           47.5         -2.739         -1.088          127.3          26.56          175.5          48.99          113.7
      2.26              -37.63          23.56          39.65          46.57          -3.22         -2.904          120.4          32.41          175.7          52.62          116.8
     2.303              -38.55           24.0          43.05          45.77         -3.635         -4.471          114.5          37.45          175.9          55.75          119.4
     2.346              -39.31          24.35          45.85          45.11         -3.975         -5.757          109.7          41.59          176.1          58.33          121.6
      2.39              -39.91          24.63          48.08          44.59         -4.246          -6.78          105.8          44.88          176.2          60.37          123.4
     2.433              -40.38          24.86          49.82          44.18         -4.458          -7.58          102.8          47.46          176.3          61.97          124.8
     2.477              -40.74          25.03          51.18          43.86         -4.623         -8.204          100.4          49.46          176.4          63.22          125.8
      2.52              -41.03          25.16          52.24          43.61         -4.752         -8.692          98.58          51.03          176.4           64.2          126.7
     2.564              -41.26          25.27          53.07          43.42         -4.854         -9.075          97.13          52.27          176.5          64.96          127.3
